<svg width="37" height="36" viewBox="0 0 37 36" fill="none" xmlns="http://www.w3.org/2000/svg">
<path d="M4.5 0C2.29688 0 0.5 1.79688 0.5 4V32C0.5 34.2031 2.29688 36 4.5 36H32.5C34.7031 36 36.5 34.2031 36.5 32V4C36.5 1.79688 34.7031 0 32.5 0H4.5ZM7.3125 9.375H12.5C17.1016 9.375 17.875 12.2031 17.875 14C17.875 16.6016 16.0859 17.4219 15.6875 17.625C16.0859 17.8281 18.125 18.375 18.125 21.375C18.3281 24.9766 16.0781 26.375 12.875 26.375H7.3125V9.375ZM21.3125 9.375H28.6875V11.375H21.3125V9.375ZM10.6875 12.1875V16.375H12.5C13.7031 16.375 14.5 15.9766 14.5 14.375C14.5 12.9766 13.8984 12.1875 12.5 12.1875H10.6875ZM25.6875 13.625C28.4844 13.625 30.5 15.2109 30.5 19.8125V21.1875H23.6875C23.6875 21.7891 23.7266 24 26.125 24C27.7266 24 28.4766 23.2109 28.875 22.8125L30.3125 24.8125C30.1094 25.0156 28.7266 26.625 26.125 26.625C23.125 26.625 20.6875 25.0156 20.6875 20.8125V19.8125C20.6875 15.2109 23.0859 13.625 25.6875 13.625ZM25.3125 16.1875C24.7109 16.1875 23.5 16.4141 23.5 18.8125H26.875C26.875 18.8125 27.3125 16.1875 25.3125 16.1875ZM10.6875 19V23.625H12.875C14.0781 23.625 14.6875 22.7734 14.6875 21.375C14.8906 19.7734 14.3281 19 13.125 19H10.6875Z" fill="white"/>
</svg>
