<svg width="41" height="40" viewBox="0 0 41 40" fill="none" xmlns="http://www.w3.org/2000/svg">
<path d="M20.5 0C9.45313 0 0.5 8.95313 0.5 20C0.5 31.0469 9.45313 40 20.5 40C31.5469 40 40.5 31.0469 40.5 20C40.5 8.95313 31.5469 0 20.5 0ZM20.5 4C29.3203 4 36.5 11.1797 36.5 20C36.5 20.9375 36.4062 21.8594 36.25 22.75C35.7578 22.6406 35.0312 22.5078 34.1875 22.5C33.5625 22.4922 32.7812 22.5938 32.125 22.6875C32.3516 21.9922 32.5 21.2266 32.5 20.4375C32.5 18.5156 31.5625 16.7266 30.0625 15.25C30.4766 13.7109 30.8828 11.0703 29.8125 10C26.6484 10 24.8984 12.2578 24.8125 12.375C23.8359 12.1406 22.8281 12 21.75 12C20.3672 12 19.0469 12.25 17.8125 12.625L18.1875 12.3125C18.1875 12.3125 16.4297 9.875 13.1875 9.875C12.0547 11.0156 12.5703 13.9062 13 15.375C11.4688 16.8359 10.5 18.5625 10.5 20.4375C10.5 21.0938 10.6562 21.7188 10.8125 22.3125C10.2578 22.25 8.25781 22.0625 7.4375 22.0625C6.71094 22.0625 5.58594 22.2344 4.6875 22.4375C4.5625 21.6406 4.5 20.8281 4.5 20C4.5 11.1797 11.6797 4 20.5 4ZM7.4375 22.5625C8.22656 22.5625 10.625 22.8438 10.9375 22.875C10.9766 22.9844 11.0156 23.0859 11.0625 23.1875C10.2031 23.1094 8.53906 22.9922 7.4375 23.125C6.70313 23.2109 5.76563 23.4766 4.9375 23.6875C4.875 23.4375 4.79688 23.1953 4.75 22.9375C5.625 22.75 6.77344 22.5625 7.4375 22.5625ZM34.1875 23C34.9844 23.0078 35.7109 23.1406 36.1875 23.25C36.1641 23.3828 36.0938 23.4922 36.0625 23.625C35.5547 23.5078 34.7188 23.3359 33.75 23.3125C33.2812 23.3047 32.5312 23.3281 31.875 23.375C31.9062 23.3125 31.9141 23.25 31.9375 23.1875C32.6172 23.0938 33.4844 22.9922 34.1875 23ZM8.6875 23.5625C9.8125 23.5703 10.8672 23.6484 11.3125 23.6875C12.3594 25.6406 14.4766 27.0859 17.75 27.6875C16.9453 28.1328 16.2266 28.7578 15.6875 29.5C15.2188 29.5391 14.7266 29.5625 14.25 29.5625C12.8594 29.5625 11.9922 28.3203 11.25 27.25C10.5 26.1797 9.57813 26.0625 9.0625 26C8.53906 25.9375 8.35938 26.2344 8.625 26.4375C10.1484 27.6094 10.6953 29 11.3125 30.25C11.8672 31.375 13.0312 32 14.3125 32H14.5625C14.5234 32.2188 14.5 32.4219 14.5 32.625V34.8125C9.88281 32.9453 6.36719 29 5.0625 24.125C5.88281 23.9219 6.80469 23.7109 7.5 23.625C7.82031 23.5859 8.22656 23.5547 8.6875 23.5625ZM33.75 23.8125C34.6484 23.8359 35.4453 24.0078 35.9375 24.125C34.8359 28.2656 32.1172 31.7109 28.5 33.8125V32.625C28.5 30.9219 27.1562 28.7344 25.25 27.6875C28.4141 27.1094 30.4766 25.7266 31.5625 23.875C32.3203 23.8203 33.2109 23.7969 33.75 23.8125ZM21.5 32C22.0469 32 22.5 32.4531 22.5 33V35.875C21.8438 35.9609 21.1797 36 20.5 36V33C20.5 32.4531 20.9531 32 21.5 32ZM17.5 34C18.0469 34 18.5 34.4531 18.5 35V35.875C17.8281 35.7891 17.1484 35.6641 16.5 35.5V35C16.5 34.4531 16.9531 34 17.5 34ZM25.5 34C25.9844 34 26.4062 34.3516 26.5 34.8125C25.8516 35.0781 25.1875 35.3203 24.5 35.5V35C24.5 34.4531 24.9531 34 25.5 34Z" fill="white"/>
</svg>
