<svg width="48" height="48" viewBox="0 0 48 48" fill="none" xmlns="http://www.w3.org/2000/svg">
<path d="M43.9766 15.9375C43.8047 19.7578 41.0781 24.9766 35.8203 31.6094C30.3828 38.5391 25.7813 42 22.0156 42C19.6875 42 17.7109 39.8906 16.1016 35.6719C15.0234 31.8047 13.9531 27.9375 12.875 24.0703C11.6797 19.8516 10.3906 17.7422 9.02344 17.7422C8.71875 17.7422 7.67188 18.3594 5.88281 19.586L4 17.211C5.97656 15.5156 7.92188 13.8125 9.83594 12.1172C12.4688 9.88283 14.4453 8.71095 15.7656 8.59376C18.875 8.29689 20.7969 10.3828 21.5156 14.8516C22.2891 19.6641 22.8281 22.6641 23.125 23.836C24.0234 27.8281 25.0156 29.8203 26.0938 29.8203C26.9297 29.8203 28.1875 28.5313 29.8672 25.9375C31.5391 23.3438 32.4375 21.375 32.5547 20.0156C32.7969 17.7813 31.8984 16.6563 29.8672 16.6563C28.9062 16.6563 27.9219 16.875 26.9062 17.3047C28.8672 10.9922 32.625 7.9297 38.1719 8.10158C42.2812 8.21876 44.2188 10.8281 43.9766 15.9375Z" fill="#4078C0"/>
</svg>
