<svg width="45" height="64" viewBox="0 0 45 64" fill="none" xmlns="http://www.w3.org/2000/svg">
<path d="M34.9864 11.3653C34.8704 13.9443 33.0298 17.4672 29.4805 21.9447C25.8098 26.6226 22.7035 28.959 20.1615 28.959C18.5899 28.959 17.2556 27.535 16.1692 24.6871C15.4414 22.0766 14.7189 19.466 13.9911 16.8554C13.1842 14.0076 12.314 12.5836 11.3911 12.5836C11.1854 12.5836 10.4787 13.0002 9.271 13.8282L8 12.225C9.33429 11.0806 10.6475 9.93085 11.9396 8.78643C13.7169 7.2781 15.0512 6.48702 15.9424 6.40791C18.0414 6.20751 19.3388 7.61563 19.824 10.6323C20.3461 13.881 20.71 15.9061 20.9104 16.6972C21.5169 19.3922 22.1867 20.737 22.9145 20.737C23.4788 20.737 24.3279 19.8668 25.4618 18.1159C26.5904 16.365 27.1969 15.036 27.276 14.1183C27.4395 12.61 26.833 11.8505 25.4618 11.8505C24.8131 11.8505 24.1486 11.9982 23.463 12.2883C24.7867 8.02699 27.3234 5.95963 31.0679 6.07566C33.8419 6.15477 35.1499 7.91624 34.9864 11.3653Z" fill="#4078C0"/>
<path d="M4.2 60L0.936 49.536H2.904L4.376 54.8C4.54667 55.3867 4.70133 55.952 4.84 56.496C4.97867 57.04 5.13333 57.6107 5.304 58.208H5.368C5.54933 57.6107 5.704 57.04 5.832 56.496C5.97067 55.952 6.12 55.3867 6.28 54.8L7.736 49.536H9.64L6.392 60H4.2ZM10.7461 60V52.144H12.5861V60H10.7461ZM11.6741 50.768C11.3435 50.768 11.0768 50.672 10.8741 50.48C10.6715 50.288 10.5701 50.032 10.5701 49.712C10.5701 49.4027 10.6715 49.152 10.8741 48.96C11.0768 48.768 11.3435 48.672 11.6741 48.672C12.0048 48.672 12.2715 48.768 12.4741 48.96C12.6768 49.152 12.7781 49.4027 12.7781 49.712C12.7781 50.032 12.6768 50.288 12.4741 50.48C12.2715 50.672 12.0048 50.768 11.6741 50.768ZM14.9336 60V52.144H16.4536L16.5816 53.216H16.6456C16.9763 52.864 17.3336 52.5653 17.7176 52.32C18.1123 52.0747 18.555 51.952 19.0456 51.952C19.6216 51.952 20.0803 52.08 20.4216 52.336C20.7736 52.5813 21.0403 52.9227 21.2216 53.36C21.595 52.9547 21.9843 52.6187 22.3896 52.352C22.8056 52.0853 23.259 51.952 23.7496 51.952C24.5816 51.952 25.195 52.224 25.5896 52.768C25.9843 53.312 26.1816 54.08 26.1816 55.072V60H24.3256V55.312C24.3256 54.6613 24.2243 54.2027 24.0216 53.936C23.8296 53.6693 23.531 53.536 23.1256 53.536C22.635 53.536 22.0856 53.8613 21.4776 54.512V60H19.6376V55.312C19.6376 54.6613 19.5363 54.2027 19.3336 53.936C19.1416 53.6693 18.8376 53.536 18.4216 53.536C17.931 53.536 17.3816 53.8613 16.7736 54.512V60H14.9336ZM31.778 60.192C31.0527 60.192 30.3967 60.032 29.81 59.712C29.2233 59.3813 28.7593 58.912 28.418 58.304C28.0767 57.6853 27.906 56.944 27.906 56.08C27.906 55.2267 28.0767 54.4907 28.418 53.872C28.77 53.2533 29.2233 52.7787 29.778 52.448C30.3327 52.1173 30.914 51.952 31.522 51.952C32.2367 51.952 32.834 52.112 33.314 52.432C33.794 52.7413 34.1567 53.1787 34.402 53.744C34.6473 54.2987 34.77 54.944 34.77 55.68C34.77 56.064 34.7433 56.3627 34.69 56.576H29.698C29.7833 57.2693 30.034 57.808 30.45 58.192C30.866 58.576 31.3887 58.768 32.018 58.768C32.3593 58.768 32.674 58.72 32.962 58.624C33.2607 58.5173 33.554 58.3733 33.842 58.192L34.466 59.344C34.0927 59.5893 33.6767 59.792 33.218 59.952C32.7593 60.112 32.2793 60.192 31.778 60.192ZM29.682 55.328H33.17C33.17 54.72 33.0367 54.2453 32.77 53.904C32.5033 53.552 32.1033 53.376 31.57 53.376C31.1113 53.376 30.7007 53.5467 30.338 53.888C29.986 54.2187 29.7673 54.6987 29.682 55.328ZM39.7434 60.192C39.0927 60.192 38.4847 60.032 37.9194 59.712C37.354 59.3813 36.8954 58.912 36.5434 58.304C36.1914 57.6853 36.0154 56.944 36.0154 56.08C36.0154 55.2053 36.1914 54.464 36.5434 53.856C36.8954 53.2373 37.354 52.768 37.9194 52.448C38.4847 52.1173 39.0927 51.952 39.7434 51.952C40.4047 51.952 41.018 52.1173 41.5834 52.448C42.1487 52.768 42.6074 53.2373 42.9594 53.856C43.3114 54.464 43.4874 55.2053 43.4874 56.08C43.4874 56.944 43.3114 57.6853 42.9594 58.304C42.6074 58.912 42.1487 59.3813 41.5834 59.712C41.018 60.032 40.4047 60.192 39.7434 60.192ZM39.7434 58.688C40.3194 58.688 40.7727 58.448 41.1034 57.968C41.434 57.488 41.5994 56.8587 41.5994 56.08C41.5994 55.2907 41.434 54.656 41.1034 54.176C40.7727 53.696 40.3194 53.456 39.7434 53.456C39.1674 53.456 38.714 53.696 38.3834 54.176C38.0634 54.656 37.9034 55.2907 37.9034 56.08C37.9034 56.8587 38.0634 57.488 38.3834 57.968C38.714 58.448 39.1674 58.688 39.7434 58.688Z" fill="#4078C0"/>
</svg>
